<mxfile host="app.diagrams.net" modified="2022-06-21T14:28:15.263Z" agent="5.0 (Windows NT 10.0; Win64; x64) AppleWebKit/537.36 (KHTML, like Gecko) Chrome/102.0.0.0 Safari/537.36" etag="UKmj7aQ7f7xfQ8IL-Dmq" version="20.0.1" type="github">
  <diagram id="RUY9uKoAq_wBMj9XJ3xV" name="Page-1">
    <mxGraphModel dx="2276" dy="858" grid="1" gridSize="10" guides="1" tooltips="1" connect="1" arrows="1" fold="1" page="1" pageScale="1" pageWidth="1169" pageHeight="827" math="0" shadow="0">
      <root>
        <mxCell id="0" />
        <mxCell id="1" parent="0" />
        <mxCell id="fjHA46dMA6G9tdhfxbiC-29" value="" style="group" parent="1" vertex="1" connectable="0">
          <mxGeometry x="100" y="860" width="450" height="491" as="geometry" />
        </mxCell>
        <mxCell id="qv6h8bC7sjNicn-3gnP4-50" style="edgeStyle=orthogonalEdgeStyle;rounded=0;orthogonalLoop=1;jettySize=auto;html=1;exitX=0;exitY=0;exitDx=80;exitDy=26.5;exitPerimeter=0;entryX=0;entryY=0.5;entryDx=0;entryDy=0;fontSize=14;" parent="fjHA46dMA6G9tdhfxbiC-29" source="qv6h8bC7sjNicn-3gnP4-1" edge="1">
          <mxGeometry relative="1" as="geometry">
            <mxPoint x="290" y="171.99999999999977" as="targetPoint" />
          </mxGeometry>
        </mxCell>
        <mxCell id="qv6h8bC7sjNicn-3gnP4-1" value="&lt;font style=&quot;font-size: 16px;&quot;&gt;progpkg&lt;/font&gt;" style="shape=folder;fontStyle=1;spacingTop=10;tabWidth=40;tabHeight=10;tabPosition=left;html=1;" parent="fjHA46dMA6G9tdhfxbiC-29" vertex="1">
          <mxGeometry x="170" y="140" width="80" height="43" as="geometry" />
        </mxCell>
        <mxCell id="qv6h8bC7sjNicn-3gnP4-19" style="edgeStyle=orthogonalEdgeStyle;rounded=0;orthogonalLoop=1;jettySize=auto;html=1;exitX=1;exitY=0.5;exitDx=0;exitDy=0;fontSize=12;entryX=0;entryY=0;entryDx=0;entryDy=26.5;entryPerimeter=0;" parent="fjHA46dMA6G9tdhfxbiC-29" source="qv6h8bC7sjNicn-3gnP4-3" target="qv6h8bC7sjNicn-3gnP4-1" edge="1">
          <mxGeometry relative="1" as="geometry">
            <mxPoint x="150" y="150" as="targetPoint" />
          </mxGeometry>
        </mxCell>
        <mxCell id="qv6h8bC7sjNicn-3gnP4-3" value="&lt;font style=&quot;font-size: 20px;&quot;&gt;Recipe_class&lt;/font&gt;" style="html=1;" parent="fjHA46dMA6G9tdhfxbiC-29" vertex="1">
          <mxGeometry width="130" height="40" as="geometry" />
        </mxCell>
        <mxCell id="qv6h8bC7sjNicn-3gnP4-41" value="&lt;font style=&quot;font-size: 14px;&quot;&gt;app.py&lt;/font&gt;" style="html=1;labelBackgroundColor=none;labelBorderColor=none;fontSize=12;" parent="fjHA46dMA6G9tdhfxbiC-29" vertex="1">
          <mxGeometry x="170" y="100" width="90" height="20" as="geometry" />
        </mxCell>
        <mxCell id="qv6h8bC7sjNicn-3gnP4-61" style="edgeStyle=orthogonalEdgeStyle;rounded=0;orthogonalLoop=1;jettySize=auto;html=1;exitX=1;exitY=0.5;exitDx=0;exitDy=0;entryX=0;entryY=0.5;entryDx=0;entryDy=0;fontSize=14;" parent="fjHA46dMA6G9tdhfxbiC-29" source="qv6h8bC7sjNicn-3gnP4-3" target="qv6h8bC7sjNicn-3gnP4-41" edge="1">
          <mxGeometry relative="1" as="geometry" />
        </mxCell>
        <mxCell id="qv6h8bC7sjNicn-3gnP4-43" value="&lt;font style=&quot;font-size: 14px;&quot;&gt;analysis.py&lt;/font&gt;" style="html=1;labelBackgroundColor=none;labelBorderColor=none;fontSize=12;" parent="fjHA46dMA6G9tdhfxbiC-29" vertex="1">
          <mxGeometry x="290" y="190" width="80" height="20" as="geometry" />
        </mxCell>
        <mxCell id="qv6h8bC7sjNicn-3gnP4-52" style="edgeStyle=orthogonalEdgeStyle;rounded=0;orthogonalLoop=1;jettySize=auto;html=1;exitX=0;exitY=0;exitDx=80;exitDy=26.5;exitPerimeter=0;entryX=0;entryY=0.5;entryDx=0;entryDy=0;fontSize=14;" parent="fjHA46dMA6G9tdhfxbiC-29" source="qv6h8bC7sjNicn-3gnP4-1" target="qv6h8bC7sjNicn-3gnP4-43" edge="1">
          <mxGeometry relative="1" as="geometry" />
        </mxCell>
        <mxCell id="qv6h8bC7sjNicn-3gnP4-44" value="&lt;font style=&quot;font-size: 14px;&quot;&gt;elastic.py&lt;/font&gt;" style="html=1;labelBackgroundColor=none;labelBorderColor=none;fontSize=12;" parent="fjHA46dMA6G9tdhfxbiC-29" vertex="1">
          <mxGeometry x="290" y="220" width="80" height="20" as="geometry" />
        </mxCell>
        <mxCell id="qv6h8bC7sjNicn-3gnP4-53" style="edgeStyle=orthogonalEdgeStyle;rounded=0;orthogonalLoop=1;jettySize=auto;html=1;exitX=0;exitY=0;exitDx=80;exitDy=26.5;exitPerimeter=0;entryX=0;entryY=0.5;entryDx=0;entryDy=0;fontSize=14;" parent="fjHA46dMA6G9tdhfxbiC-29" source="qv6h8bC7sjNicn-3gnP4-1" target="qv6h8bC7sjNicn-3gnP4-44" edge="1">
          <mxGeometry relative="1" as="geometry" />
        </mxCell>
        <mxCell id="qv6h8bC7sjNicn-3gnP4-47" value="&lt;span style=&quot;font-size: 16px;&quot;&gt;templates&lt;/span&gt;" style="shape=folder;fontStyle=1;spacingTop=10;tabWidth=40;tabHeight=14;tabPosition=left;html=1;" parent="fjHA46dMA6G9tdhfxbiC-29" vertex="1">
          <mxGeometry x="170" y="300" width="80" height="50" as="geometry" />
        </mxCell>
        <mxCell id="qv6h8bC7sjNicn-3gnP4-21" style="edgeStyle=orthogonalEdgeStyle;rounded=0;orthogonalLoop=1;jettySize=auto;html=1;exitX=1;exitY=0.5;exitDx=0;exitDy=0;entryX=0;entryY=0;entryDx=0;entryDy=32;entryPerimeter=0;fontSize=12;" parent="fjHA46dMA6G9tdhfxbiC-29" source="qv6h8bC7sjNicn-3gnP4-3" target="qv6h8bC7sjNicn-3gnP4-47" edge="1">
          <mxGeometry relative="1" as="geometry">
            <mxPoint x="170" y="392.0000000000002" as="targetPoint" />
          </mxGeometry>
        </mxCell>
        <mxCell id="qv6h8bC7sjNicn-3gnP4-48" value="&lt;font style=&quot;font-size: 14px;&quot;&gt;search.html&lt;/font&gt;" style="html=1;labelBackgroundColor=none;labelBorderColor=none;fontSize=12;" parent="fjHA46dMA6G9tdhfxbiC-29" vertex="1">
          <mxGeometry x="290" y="353" width="80" height="21" as="geometry" />
        </mxCell>
        <mxCell id="qv6h8bC7sjNicn-3gnP4-57" style="edgeStyle=orthogonalEdgeStyle;rounded=0;orthogonalLoop=1;jettySize=auto;html=1;exitX=0;exitY=0;exitDx=80;exitDy=32;exitPerimeter=0;entryX=0;entryY=0.5;entryDx=0;entryDy=0;fontSize=14;" parent="fjHA46dMA6G9tdhfxbiC-29" source="qv6h8bC7sjNicn-3gnP4-47" target="qv6h8bC7sjNicn-3gnP4-48" edge="1">
          <mxGeometry relative="1" as="geometry" />
        </mxCell>
        <mxCell id="qv6h8bC7sjNicn-3gnP4-51" value="&lt;span style=&quot;font-size: 14px;&quot;&gt;crawl.py&lt;/span&gt;" style="html=1;labelBackgroundColor=none;labelBorderColor=none;fontSize=12;" parent="fjHA46dMA6G9tdhfxbiC-29" vertex="1">
          <mxGeometry x="290" y="160" width="80" height="20" as="geometry" />
        </mxCell>
        <mxCell id="qv6h8bC7sjNicn-3gnP4-58" value="&lt;font style=&quot;font-size: 14px;&quot;&gt;home.html&lt;/font&gt;" style="html=1;labelBackgroundColor=none;labelBorderColor=none;fontSize=12;" parent="fjHA46dMA6G9tdhfxbiC-29" vertex="1">
          <mxGeometry x="290" y="323" width="80" height="21" as="geometry" />
        </mxCell>
        <mxCell id="qv6h8bC7sjNicn-3gnP4-59" style="edgeStyle=orthogonalEdgeStyle;rounded=0;orthogonalLoop=1;jettySize=auto;html=1;exitX=0;exitY=0;exitDx=80;exitDy=32;exitPerimeter=0;entryX=0;entryY=0.429;entryDx=0;entryDy=0;entryPerimeter=0;fontSize=14;" parent="fjHA46dMA6G9tdhfxbiC-29" source="qv6h8bC7sjNicn-3gnP4-47" target="qv6h8bC7sjNicn-3gnP4-58" edge="1">
          <mxGeometry relative="1" as="geometry" />
        </mxCell>
        <mxCell id="qv6h8bC7sjNicn-3gnP4-60" value="&lt;font style=&quot;font-size: 14px;&quot;&gt;run_app.sh&lt;/font&gt;" style="html=1;labelBackgroundColor=none;labelBorderColor=none;fontSize=12;" parent="fjHA46dMA6G9tdhfxbiC-29" vertex="1">
          <mxGeometry x="170" y="9" width="90" height="22" as="geometry" />
        </mxCell>
        <mxCell id="qv6h8bC7sjNicn-3gnP4-18" style="edgeStyle=orthogonalEdgeStyle;rounded=0;orthogonalLoop=1;jettySize=auto;html=1;exitX=1;exitY=0.5;exitDx=0;exitDy=0;entryX=0;entryY=0.5;entryDx=0;entryDy=0;fontSize=12;" parent="fjHA46dMA6G9tdhfxbiC-29" source="qv6h8bC7sjNicn-3gnP4-3" target="qv6h8bC7sjNicn-3gnP4-60" edge="1">
          <mxGeometry relative="1" as="geometry">
            <mxPoint x="170" y="20.07199999999989" as="targetPoint" />
          </mxGeometry>
        </mxCell>
        <mxCell id="fjHA46dMA6G9tdhfxbiC-1" value="&lt;span style=&quot;font-size: 14px;&quot;&gt;get_index.py&lt;/span&gt;" style="html=1;labelBackgroundColor=none;labelBorderColor=none;fontSize=12;" parent="fjHA46dMA6G9tdhfxbiC-29" vertex="1">
          <mxGeometry x="170" y="40" width="90" height="22" as="geometry" />
        </mxCell>
        <mxCell id="fjHA46dMA6G9tdhfxbiC-3" style="edgeStyle=orthogonalEdgeStyle;rounded=0;orthogonalLoop=1;jettySize=auto;html=1;exitX=1;exitY=0.5;exitDx=0;exitDy=0;fontSize=14;" parent="fjHA46dMA6G9tdhfxbiC-29" target="fjHA46dMA6G9tdhfxbiC-1" edge="1">
          <mxGeometry relative="1" as="geometry">
            <mxPoint x="130" y="20" as="sourcePoint" />
            <mxPoint x="170" y="60" as="targetPoint" />
            <Array as="points">
              <mxPoint x="150" y="20" />
              <mxPoint x="150" y="50" />
            </Array>
          </mxGeometry>
        </mxCell>
        <mxCell id="fjHA46dMA6G9tdhfxbiC-4" value="&lt;font style=&quot;font-size: 14px;&quot;&gt;control.py&lt;br&gt;&lt;/font&gt;" style="html=1;labelBackgroundColor=none;labelBorderColor=none;fontSize=12;" parent="fjHA46dMA6G9tdhfxbiC-29" vertex="1">
          <mxGeometry x="170" y="70" width="90" height="21" as="geometry" />
        </mxCell>
        <mxCell id="fjHA46dMA6G9tdhfxbiC-5" style="edgeStyle=orthogonalEdgeStyle;rounded=0;orthogonalLoop=1;jettySize=auto;html=1;exitX=1;exitY=0.5;exitDx=0;exitDy=0;fontSize=14;" parent="fjHA46dMA6G9tdhfxbiC-29" source="qv6h8bC7sjNicn-3gnP4-3" edge="1">
          <mxGeometry relative="1" as="geometry">
            <mxPoint x="130" y="70" as="sourcePoint" />
            <mxPoint x="170" y="80" as="targetPoint" />
            <Array as="points">
              <mxPoint x="150" y="20" />
              <mxPoint x="150" y="80" />
              <mxPoint x="170" y="80" />
            </Array>
          </mxGeometry>
        </mxCell>
        <mxCell id="fjHA46dMA6G9tdhfxbiC-15" style="edgeStyle=orthogonalEdgeStyle;rounded=0;orthogonalLoop=1;jettySize=auto;html=1;exitX=0;exitY=0;exitDx=80;exitDy=21.75;exitPerimeter=0;entryX=0;entryY=0;entryDx=80;entryDy=21.75;entryPerimeter=0;" parent="fjHA46dMA6G9tdhfxbiC-29" source="fjHA46dMA6G9tdhfxbiC-10" target="fjHA46dMA6G9tdhfxbiC-10" edge="1">
          <mxGeometry relative="1" as="geometry" />
        </mxCell>
        <mxCell id="fjHA46dMA6G9tdhfxbiC-10" value="&lt;span style=&quot;font-size: 16px;&quot;&gt;static&lt;/span&gt;" style="shape=folder;fontStyle=1;spacingTop=10;tabWidth=40;tabHeight=14;tabPosition=left;html=1;" parent="fjHA46dMA6G9tdhfxbiC-29" vertex="1">
          <mxGeometry x="170" y="400" width="80" height="45" as="geometry" />
        </mxCell>
        <mxCell id="fjHA46dMA6G9tdhfxbiC-12" value="&lt;font style=&quot;font-size: 14px;&quot;&gt;css&lt;br&gt;&lt;/font&gt;" style="html=1;labelBackgroundColor=none;labelBorderColor=none;fontSize=12;" parent="fjHA46dMA6G9tdhfxbiC-29" vertex="1">
          <mxGeometry x="390" y="421" width="60" height="21" as="geometry" />
        </mxCell>
        <mxCell id="fjHA46dMA6G9tdhfxbiC-13" style="edgeStyle=orthogonalEdgeStyle;rounded=0;orthogonalLoop=1;jettySize=auto;html=1;exitX=1;exitY=0.5;exitDx=0;exitDy=0;fontSize=12;entryX=0;entryY=0;entryDx=0;entryDy=29.5;entryPerimeter=0;" parent="fjHA46dMA6G9tdhfxbiC-29" source="qv6h8bC7sjNicn-3gnP4-3" target="fjHA46dMA6G9tdhfxbiC-10" edge="1">
          <mxGeometry relative="1" as="geometry">
            <mxPoint x="160" y="400" as="targetPoint" />
            <mxPoint x="140" y="30" as="sourcePoint" />
            <Array as="points">
              <mxPoint x="150" y="20" />
              <mxPoint x="150" y="430" />
              <mxPoint x="170" y="430" />
            </Array>
          </mxGeometry>
        </mxCell>
        <mxCell id="fjHA46dMA6G9tdhfxbiC-14" value="&lt;span style=&quot;font-size: 16px;&quot;&gt;assets&lt;/span&gt;" style="shape=folder;fontStyle=1;spacingTop=10;tabWidth=40;tabHeight=14;tabPosition=left;html=1;" parent="fjHA46dMA6G9tdhfxbiC-29" vertex="1">
          <mxGeometry x="270" y="400" width="80" height="45" as="geometry" />
        </mxCell>
        <mxCell id="fjHA46dMA6G9tdhfxbiC-19" style="edgeStyle=orthogonalEdgeStyle;rounded=0;orthogonalLoop=1;jettySize=auto;html=1;exitX=0;exitY=0;exitDx=80;exitDy=29.5;exitPerimeter=0;entryX=0;entryY=0;entryDx=0;entryDy=29.5;entryPerimeter=0;" parent="fjHA46dMA6G9tdhfxbiC-29" source="fjHA46dMA6G9tdhfxbiC-10" target="fjHA46dMA6G9tdhfxbiC-14" edge="1">
          <mxGeometry relative="1" as="geometry" />
        </mxCell>
        <mxCell id="fjHA46dMA6G9tdhfxbiC-9" style="edgeStyle=orthogonalEdgeStyle;rounded=0;orthogonalLoop=1;jettySize=auto;html=1;exitX=0;exitY=0;exitDx=80;exitDy=29.5;exitPerimeter=0;entryX=0;entryY=0.429;entryDx=0;entryDy=0;entryPerimeter=0;fontSize=14;" parent="fjHA46dMA6G9tdhfxbiC-29" source="fjHA46dMA6G9tdhfxbiC-14" target="fjHA46dMA6G9tdhfxbiC-12" edge="1">
          <mxGeometry relative="1" as="geometry" />
        </mxCell>
        <mxCell id="fjHA46dMA6G9tdhfxbiC-20" value="&lt;font style=&quot;font-size: 14px;&quot;&gt;img&lt;br&gt;&lt;/font&gt;" style="html=1;labelBackgroundColor=none;labelBorderColor=none;fontSize=12;" parent="fjHA46dMA6G9tdhfxbiC-29" vertex="1">
          <mxGeometry x="390" y="450" width="60" height="21" as="geometry" />
        </mxCell>
        <mxCell id="fjHA46dMA6G9tdhfxbiC-25" style="edgeStyle=orthogonalEdgeStyle;rounded=0;orthogonalLoop=1;jettySize=auto;html=1;exitX=0;exitY=0;exitDx=80;exitDy=29.5;exitPerimeter=0;entryX=0;entryY=0.5;entryDx=0;entryDy=0;" parent="fjHA46dMA6G9tdhfxbiC-29" source="fjHA46dMA6G9tdhfxbiC-14" target="fjHA46dMA6G9tdhfxbiC-20" edge="1">
          <mxGeometry relative="1" as="geometry" />
        </mxCell>
        <mxCell id="fjHA46dMA6G9tdhfxbiC-21" value="&lt;font style=&quot;font-size: 14px;&quot;&gt;js&lt;br&gt;&lt;/font&gt;" style="html=1;labelBackgroundColor=none;labelBorderColor=none;fontSize=12;" parent="fjHA46dMA6G9tdhfxbiC-29" vertex="1">
          <mxGeometry x="390" y="480" width="60" height="21" as="geometry" />
        </mxCell>
        <mxCell id="fjHA46dMA6G9tdhfxbiC-26" style="edgeStyle=orthogonalEdgeStyle;rounded=0;orthogonalLoop=1;jettySize=auto;html=1;exitX=0;exitY=0;exitDx=80;exitDy=29.5;exitPerimeter=0;entryX=0;entryY=0.5;entryDx=0;entryDy=0;" parent="fjHA46dMA6G9tdhfxbiC-29" source="fjHA46dMA6G9tdhfxbiC-14" target="fjHA46dMA6G9tdhfxbiC-21" edge="1">
          <mxGeometry relative="1" as="geometry" />
        </mxCell>
        <mxCell id="fjHA46dMA6G9tdhfxbiC-23" value="&lt;font style=&quot;font-size: 14px;&quot;&gt;vendor&lt;br&gt;&lt;/font&gt;" style="html=1;labelBackgroundColor=none;labelBorderColor=none;fontSize=12;" parent="fjHA46dMA6G9tdhfxbiC-29" vertex="1">
          <mxGeometry x="390" y="510" width="60" height="21" as="geometry" />
        </mxCell>
        <mxCell id="fjHA46dMA6G9tdhfxbiC-27" style="edgeStyle=orthogonalEdgeStyle;rounded=0;orthogonalLoop=1;jettySize=auto;html=1;exitX=0;exitY=0;exitDx=80;exitDy=29.5;exitPerimeter=0;entryX=0;entryY=0.5;entryDx=0;entryDy=0;" parent="fjHA46dMA6G9tdhfxbiC-29" source="fjHA46dMA6G9tdhfxbiC-14" target="fjHA46dMA6G9tdhfxbiC-23" edge="1">
          <mxGeometry relative="1" as="geometry" />
        </mxCell>
        <mxCell id="Ol_Y0ZJ1FCNGuOi6sB1E-1" value="&lt;font style=&quot;font-size: 14px;&quot;&gt;put_in_el.py&lt;/font&gt;" style="html=1;labelBackgroundColor=none;labelBorderColor=none;fontSize=12;" parent="fjHA46dMA6G9tdhfxbiC-29" vertex="1">
          <mxGeometry x="290" y="250" width="80" height="20" as="geometry" />
        </mxCell>
        <mxCell id="Ol_Y0ZJ1FCNGuOi6sB1E-3" style="edgeStyle=orthogonalEdgeStyle;rounded=0;orthogonalLoop=1;jettySize=auto;html=1;exitX=0;exitY=0;exitDx=80;exitDy=26.5;exitPerimeter=0;fontSize=14;entryX=0;entryY=0.5;entryDx=0;entryDy=0;" parent="fjHA46dMA6G9tdhfxbiC-29" source="qv6h8bC7sjNicn-3gnP4-1" target="Ol_Y0ZJ1FCNGuOi6sB1E-1" edge="1">
          <mxGeometry relative="1" as="geometry">
            <mxPoint x="250.0000000000001" y="172" as="sourcePoint" />
            <mxPoint x="260" y="241" as="targetPoint" />
          </mxGeometry>
        </mxCell>
        <mxCell id="Z-qOIZ776hGPXbGgPIfg-2" value="" style="group" parent="1" vertex="1" connectable="0">
          <mxGeometry x="655" y="840" width="365" height="380" as="geometry" />
        </mxCell>
        <mxCell id="fjHA46dMA6G9tdhfxbiC-30" value="&lt;font style=&quot;font-size: 10px;&quot;&gt;run_app.sh 실행&lt;/font&gt;" style="ellipse;whiteSpace=wrap;html=1;" parent="Z-qOIZ776hGPXbGgPIfg-2" vertex="1">
          <mxGeometry x="55" width="100" height="40" as="geometry" />
        </mxCell>
        <mxCell id="fjHA46dMA6G9tdhfxbiC-31" value="&lt;font style=&quot;font-size: 8px;&quot;&gt;대조군 단어가 있는가? &lt;br&gt;(get_index.py 실행)&lt;/font&gt;" style="rhombus;whiteSpace=wrap;html=1;" parent="Z-qOIZ776hGPXbGgPIfg-2" vertex="1">
          <mxGeometry x="13.75" y="60" width="182.5" height="70" as="geometry" />
        </mxCell>
        <mxCell id="fjHA46dMA6G9tdhfxbiC-32" style="edgeStyle=orthogonalEdgeStyle;rounded=0;orthogonalLoop=1;jettySize=auto;html=1;exitX=0.5;exitY=1;exitDx=0;exitDy=0;entryX=0.5;entryY=0;entryDx=0;entryDy=0;fontSize=8;" parent="Z-qOIZ776hGPXbGgPIfg-2" source="fjHA46dMA6G9tdhfxbiC-30" target="fjHA46dMA6G9tdhfxbiC-31" edge="1">
          <mxGeometry relative="1" as="geometry" />
        </mxCell>
        <mxCell id="fjHA46dMA6G9tdhfxbiC-34" value="elastic.py 를 통해 검색량이 높은 단어를 가져오고 home.html 을 실행&amp;nbsp;" style="rounded=0;whiteSpace=wrap;html=1;fontSize=8;" parent="Z-qOIZ776hGPXbGgPIfg-2" vertex="1">
          <mxGeometry x="45" y="170" width="120" height="50" as="geometry" />
        </mxCell>
        <mxCell id="fjHA46dMA6G9tdhfxbiC-38" style="edgeStyle=orthogonalEdgeStyle;rounded=0;orthogonalLoop=1;jettySize=auto;html=1;exitX=0.5;exitY=1;exitDx=0;exitDy=0;entryX=0.5;entryY=0;entryDx=0;entryDy=0;fontSize=8;" parent="Z-qOIZ776hGPXbGgPIfg-2" source="fjHA46dMA6G9tdhfxbiC-31" target="fjHA46dMA6G9tdhfxbiC-34" edge="1">
          <mxGeometry relative="1" as="geometry" />
        </mxCell>
        <mxCell id="fjHA46dMA6G9tdhfxbiC-40" style="edgeStyle=orthogonalEdgeStyle;rounded=0;orthogonalLoop=1;jettySize=auto;html=1;entryX=1;entryY=0.5;entryDx=0;entryDy=0;fontSize=8;exitX=0.5;exitY=1;exitDx=0;exitDy=0;" parent="Z-qOIZ776hGPXbGgPIfg-2" source="fjHA46dMA6G9tdhfxbiC-35" target="fjHA46dMA6G9tdhfxbiC-34" edge="1">
          <mxGeometry relative="1" as="geometry">
            <mxPoint x="265" y="220" as="sourcePoint" />
          </mxGeometry>
        </mxCell>
        <mxCell id="fjHA46dMA6G9tdhfxbiC-35" value="control.py 를 실행시켜 대조군 &lt;br&gt;단어를 만든다.elasticsearch에&lt;br&gt;&amp;nbsp;검색량 기본 단어들을 집어넣는다" style="rounded=0;whiteSpace=wrap;html=1;fontSize=8;" parent="Z-qOIZ776hGPXbGgPIfg-2" vertex="1">
          <mxGeometry x="205" y="115" width="160" height="60" as="geometry" />
        </mxCell>
        <mxCell id="fjHA46dMA6G9tdhfxbiC-36" style="edgeStyle=orthogonalEdgeStyle;rounded=0;orthogonalLoop=1;jettySize=auto;html=1;exitX=1;exitY=0.5;exitDx=0;exitDy=0;entryX=0.5;entryY=0;entryDx=0;entryDy=0;fontSize=8;" parent="Z-qOIZ776hGPXbGgPIfg-2" source="fjHA46dMA6G9tdhfxbiC-31" target="fjHA46dMA6G9tdhfxbiC-35" edge="1">
          <mxGeometry relative="1" as="geometry">
            <Array as="points">
              <mxPoint x="285" y="95" />
            </Array>
          </mxGeometry>
        </mxCell>
        <mxCell id="fjHA46dMA6G9tdhfxbiC-37" value="아니요" style="text;html=1;strokeColor=none;fillColor=none;align=center;verticalAlign=middle;whiteSpace=wrap;rounded=0;fontSize=8;" parent="Z-qOIZ776hGPXbGgPIfg-2" vertex="1">
          <mxGeometry x="196.25" y="70" width="60" height="30" as="geometry" />
        </mxCell>
        <mxCell id="fjHA46dMA6G9tdhfxbiC-39" value="네" style="text;html=1;strokeColor=none;fillColor=none;align=center;verticalAlign=middle;whiteSpace=wrap;rounded=0;fontSize=8;" parent="Z-qOIZ776hGPXbGgPIfg-2" vertex="1">
          <mxGeometry x="80" y="130" width="30" height="30" as="geometry" />
        </mxCell>
        <mxCell id="fjHA46dMA6G9tdhfxbiC-45" style="edgeStyle=orthogonalEdgeStyle;rounded=0;orthogonalLoop=1;jettySize=auto;html=1;exitX=0.5;exitY=1;exitDx=0;exitDy=0;fontSize=8;" parent="Z-qOIZ776hGPXbGgPIfg-2" source="fjHA46dMA6G9tdhfxbiC-41" edge="1">
          <mxGeometry relative="1" as="geometry">
            <mxPoint x="105.20000000000005" y="330" as="targetPoint" />
          </mxGeometry>
        </mxCell>
        <mxCell id="fjHA46dMA6G9tdhfxbiC-41" value="검색할 단어, 제외할 단어를 받고 검색한 단어는 elsaticsearch에서 검색량 1을 증가시킨다.&lt;br&gt;제외단어가 없는 레시피들의 조리방법에서 &lt;br&gt;명사들의 tdidf를 계산하고 점수가 높은 10개 &lt;br&gt;단어들을 같이 put한다." style="rounded=0;whiteSpace=wrap;html=1;fontSize=8;" parent="Z-qOIZ776hGPXbGgPIfg-2" vertex="1">
          <mxGeometry y="240" width="210" height="70" as="geometry" />
        </mxCell>
        <mxCell id="fjHA46dMA6G9tdhfxbiC-43" style="edgeStyle=orthogonalEdgeStyle;rounded=0;orthogonalLoop=1;jettySize=auto;html=1;exitX=0.5;exitY=1;exitDx=0;exitDy=0;entryX=0.5;entryY=0;entryDx=0;entryDy=0;fontSize=8;" parent="Z-qOIZ776hGPXbGgPIfg-2" source="fjHA46dMA6G9tdhfxbiC-34" target="fjHA46dMA6G9tdhfxbiC-41" edge="1">
          <mxGeometry relative="1" as="geometry" />
        </mxCell>
        <mxCell id="fjHA46dMA6G9tdhfxbiC-44" value="요리 상자를 클릭하면 하이퍼링크를 통해 자세한 요리 레시피를 보여준다" style="rounded=0;whiteSpace=wrap;html=1;fontSize=8;" parent="Z-qOIZ776hGPXbGgPIfg-2" vertex="1">
          <mxGeometry x="20" y="331" width="170" height="49" as="geometry" />
        </mxCell>
        <mxCell id="SfWb0SVNfTe2BU3Or30L-1" value="" style="group" vertex="1" connectable="0" parent="1">
          <mxGeometry x="120" y="76" width="920" height="581.5" as="geometry" />
        </mxCell>
        <mxCell id="WYZDTBI8hpZmAs6h1OOB-1" value="" style="sketch=0;shadow=0;dashed=0;html=1;labelPosition=center;verticalLabelPosition=bottom;verticalAlign=top;align=center;outlineConnect=0;shape=mxgraph.veeam.3d.workstation;" parent="SfWb0SVNfTe2BU3Or30L-1" vertex="1">
          <mxGeometry x="80" y="244" width="118" height="80" as="geometry" />
        </mxCell>
        <mxCell id="WYZDTBI8hpZmAs6h1OOB-12" style="edgeStyle=orthogonalEdgeStyle;orthogonalLoop=1;jettySize=auto;html=1;fontSize=13;" parent="SfWb0SVNfTe2BU3Or30L-1" source="WYZDTBI8hpZmAs6h1OOB-2" edge="1">
          <mxGeometry relative="1" as="geometry">
            <mxPoint x="200" y="284" as="targetPoint" />
          </mxGeometry>
        </mxCell>
        <mxCell id="WYZDTBI8hpZmAs6h1OOB-2" value="" style="sketch=0;shadow=0;dashed=0;html=1;labelPosition=center;verticalLabelPosition=bottom;verticalAlign=top;align=center;outlineConnect=0;shape=mxgraph.veeam.3d.tape_library;" parent="SfWb0SVNfTe2BU3Or30L-1" vertex="1">
          <mxGeometry x="320" y="244" width="120" height="80" as="geometry" />
        </mxCell>
        <mxCell id="WYZDTBI8hpZmAs6h1OOB-14" style="edgeStyle=orthogonalEdgeStyle;orthogonalLoop=1;jettySize=auto;html=1;fontSize=13;" parent="SfWb0SVNfTe2BU3Or30L-1" source="WYZDTBI8hpZmAs6h1OOB-1" target="WYZDTBI8hpZmAs6h1OOB-2" edge="1">
          <mxGeometry relative="1" as="geometry" />
        </mxCell>
        <mxCell id="WYZDTBI8hpZmAs6h1OOB-3" value="" style="sketch=0;shadow=0;dashed=0;html=1;labelPosition=center;verticalLabelPosition=bottom;verticalAlign=top;align=center;outlineConnect=0;shape=mxgraph.veeam.3d.database;" parent="SfWb0SVNfTe2BU3Or30L-1" vertex="1">
          <mxGeometry x="600" y="444" width="120" height="80" as="geometry" />
        </mxCell>
        <mxCell id="WYZDTBI8hpZmAs6h1OOB-4" value="" style="sketch=0;shadow=0;dashed=0;html=1;labelPosition=center;verticalLabelPosition=bottom;verticalAlign=top;align=center;outlineConnect=0;shape=mxgraph.veeam.3d.tape_server;" parent="SfWb0SVNfTe2BU3Or30L-1" vertex="1">
          <mxGeometry x="600" y="44" width="120" height="80" as="geometry" />
        </mxCell>
        <mxCell id="WYZDTBI8hpZmAs6h1OOB-19" style="edgeStyle=orthogonalEdgeStyle;orthogonalLoop=1;jettySize=auto;html=1;fontSize=13;" parent="SfWb0SVNfTe2BU3Or30L-1" source="WYZDTBI8hpZmAs6h1OOB-5" target="WYZDTBI8hpZmAs6h1OOB-4" edge="1">
          <mxGeometry relative="1" as="geometry" />
        </mxCell>
        <mxCell id="WYZDTBI8hpZmAs6h1OOB-5" value="" style="sketch=0;pointerEvents=1;shadow=0;dashed=0;html=1;strokeColor=none;fillColor=#005F4B;labelPosition=center;verticalLabelPosition=bottom;verticalAlign=top;align=center;outlineConnect=0;shape=mxgraph.veeam2.dns;" parent="SfWb0SVNfTe2BU3Or30L-1" vertex="1">
          <mxGeometry x="800" y="24" width="120" height="120" as="geometry" />
        </mxCell>
        <mxCell id="WYZDTBI8hpZmAs6h1OOB-7" value="" style="sketch=0;shadow=0;dashed=0;html=1;labelPosition=center;verticalLabelPosition=bottom;verticalAlign=top;align=center;outlineConnect=0;shape=mxgraph.veeam.3d.veeam_backup_search_server;" parent="SfWb0SVNfTe2BU3Or30L-1" vertex="1">
          <mxGeometry x="600" y="244" width="120" height="80" as="geometry" />
        </mxCell>
        <mxCell id="WYZDTBI8hpZmAs6h1OOB-40" style="edgeStyle=orthogonalEdgeStyle;orthogonalLoop=1;jettySize=auto;html=1;fontSize=12;" parent="SfWb0SVNfTe2BU3Or30L-1" source="WYZDTBI8hpZmAs6h1OOB-3" target="WYZDTBI8hpZmAs6h1OOB-7" edge="1">
          <mxGeometry relative="1" as="geometry" />
        </mxCell>
        <mxCell id="WYZDTBI8hpZmAs6h1OOB-18" style="edgeStyle=orthogonalEdgeStyle;orthogonalLoop=1;jettySize=auto;html=1;fontSize=13;" parent="SfWb0SVNfTe2BU3Or30L-1" source="WYZDTBI8hpZmAs6h1OOB-4" target="WYZDTBI8hpZmAs6h1OOB-7" edge="1">
          <mxGeometry relative="1" as="geometry" />
        </mxCell>
        <mxCell id="WYZDTBI8hpZmAs6h1OOB-9" value="" style="shape=actor;whiteSpace=wrap;html=1;labelPosition=center;verticalLabelPosition=bottom;align=center;verticalAlign=top;" parent="SfWb0SVNfTe2BU3Or30L-1" vertex="1">
          <mxGeometry y="244" width="60" height="70" as="geometry" />
        </mxCell>
        <mxCell id="WYZDTBI8hpZmAs6h1OOB-10" value="&lt;font style=&quot;font-size: 13px;&quot;&gt;User&lt;/font&gt;" style="strokeWidth=1;html=1;shadow=0;dashed=0;shape=mxgraph.ios.iTextInput;strokeColor=#444444;buttonText=;fontSize=8;whiteSpace=wrap;align=center;" parent="SfWb0SVNfTe2BU3Or30L-1" vertex="1">
          <mxGeometry y="309" width="60" height="15" as="geometry" />
        </mxCell>
        <mxCell id="WYZDTBI8hpZmAs6h1OOB-13" value="&lt;font style=&quot;font-size: 12px;&quot;&gt;View Result&lt;/font&gt;" style="text;html=1;strokeColor=none;fillColor=none;align=center;verticalAlign=middle;whiteSpace=wrap;rounded=0;fontSize=13;" parent="SfWb0SVNfTe2BU3Or30L-1" vertex="1">
          <mxGeometry x="220" y="284" width="80" height="30" as="geometry" />
        </mxCell>
        <mxCell id="WYZDTBI8hpZmAs6h1OOB-15" value="&lt;font style=&quot;font-size: 12px;&quot;&gt;Insert Keyword&lt;/font&gt;" style="text;html=1;strokeColor=none;fillColor=none;align=center;verticalAlign=middle;whiteSpace=wrap;rounded=0;fontSize=13;" parent="SfWb0SVNfTe2BU3Or30L-1" vertex="1">
          <mxGeometry x="215" y="254" width="90" height="30" as="geometry" />
        </mxCell>
        <mxCell id="WYZDTBI8hpZmAs6h1OOB-20" value="Text" style="text;html=1;strokeColor=none;fillColor=none;align=center;verticalAlign=middle;whiteSpace=wrap;rounded=0;fontSize=13;" parent="SfWb0SVNfTe2BU3Or30L-1" vertex="1">
          <mxGeometry x="730" y="54" width="60" height="30" as="geometry" />
        </mxCell>
        <mxCell id="WYZDTBI8hpZmAs6h1OOB-22" value="&lt;h1 style=&quot;&quot;&gt;&lt;font style=&quot;font-size: 16px;&quot;&gt;Text Analysis&lt;/font&gt;&lt;/h1&gt;&lt;p style=&quot;&quot;&gt;&lt;span style=&quot;font-size: 12px;&quot;&gt;조리방법의 text 중 명사만 추출하고, 명사들의 TF-IDF점수를 매겨 점수가 높은 상위 10개 명사를 HTML에 보낸다.&amp;nbsp;&lt;/span&gt;&lt;/p&gt;" style="text;html=1;strokeColor=none;fillColor=none;spacing=5;spacingTop=-20;whiteSpace=wrap;overflow=hidden;rounded=0;fontSize=13;" parent="SfWb0SVNfTe2BU3Or30L-1" vertex="1">
          <mxGeometry x="730" y="224" width="190" height="120" as="geometry" />
        </mxCell>
        <mxCell id="WYZDTBI8hpZmAs6h1OOB-23" value="&lt;h1 style=&quot;&quot;&gt;&lt;span style=&quot;font-size: 16px;&quot;&gt;Elastic Search&lt;/span&gt;&lt;/h1&gt;&lt;p style=&quot;&quot;&gt;&lt;span style=&quot;font-size: 12px;&quot;&gt;0. Text Analysis를 위해 기본단어들이 저장되어 있다.&lt;/span&gt;&lt;/p&gt;&lt;p style=&quot;&quot;&gt;&lt;span style=&quot;font-size: 12px;&quot;&gt;1. User에게 검색어를 받아 저장하고 검색어가 입력될 때 마다 검색횟수를 증가시킨다.&lt;/span&gt;&lt;/p&gt;&lt;p style=&quot;&quot;&gt;&lt;span style=&quot;font-size: 12px; background-color: initial;&quot;&gt;2. Home.html로 누적검색량이 높은 검색어를 10개 보낸다.&lt;/span&gt;&lt;/p&gt;" style="text;html=1;strokeColor=none;fillColor=none;spacing=5;spacingTop=-20;whiteSpace=wrap;overflow=hidden;rounded=0;fontSize=13;" parent="SfWb0SVNfTe2BU3Or30L-1" vertex="1">
          <mxGeometry x="730" y="386.5" width="190" height="195" as="geometry" />
        </mxCell>
        <mxCell id="WYZDTBI8hpZmAs6h1OOB-24" value="조리방법&lt;br&gt;Text" style="text;html=1;strokeColor=none;fillColor=none;align=center;verticalAlign=middle;whiteSpace=wrap;rounded=0;fontSize=13;" parent="SfWb0SVNfTe2BU3Or30L-1" vertex="1">
          <mxGeometry x="660" y="164" width="60" height="30" as="geometry" />
        </mxCell>
        <mxCell id="WYZDTBI8hpZmAs6h1OOB-27" value="&lt;h1 style=&quot;&quot;&gt;&lt;span style=&quot;font-size: 16px;&quot;&gt;Web Crawling&lt;/span&gt;&lt;/h1&gt;&lt;p style=&quot;&quot;&gt;&lt;span style=&quot;font-size: 12px;&quot;&gt;Web에서 요리명, 각 요리별로 조리방법을 크롤링 한다. 요리명은 Search.html로 보내고 조리방법은 Text Analysis 모듈로 보낸다.&lt;/span&gt;&lt;/p&gt;" style="text;html=1;strokeColor=none;fillColor=none;spacing=5;spacingTop=-20;whiteSpace=wrap;overflow=hidden;rounded=0;fontSize=13;" parent="SfWb0SVNfTe2BU3Or30L-1" vertex="1">
          <mxGeometry x="410" width="190" height="120" as="geometry" />
        </mxCell>
        <mxCell id="WYZDTBI8hpZmAs6h1OOB-28" value="" style="endArrow=classic;html=1;fontSize=12;" parent="SfWb0SVNfTe2BU3Or30L-1" edge="1">
          <mxGeometry width="50" height="50" relative="1" as="geometry">
            <mxPoint x="430" y="244" as="sourcePoint" />
            <mxPoint x="590" y="124" as="targetPoint" />
          </mxGeometry>
        </mxCell>
        <mxCell id="WYZDTBI8hpZmAs6h1OOB-29" value="Keyword" style="text;html=1;strokeColor=none;fillColor=none;align=center;verticalAlign=middle;whiteSpace=wrap;rounded=0;fontSize=13;" parent="SfWb0SVNfTe2BU3Or30L-1" vertex="1">
          <mxGeometry x="455" y="154" width="60" height="30" as="geometry" />
        </mxCell>
        <mxCell id="WYZDTBI8hpZmAs6h1OOB-30" value="" style="endArrow=classic;html=1;fontSize=12;" parent="SfWb0SVNfTe2BU3Or30L-1" edge="1">
          <mxGeometry width="50" height="50" relative="1" as="geometry">
            <mxPoint x="610" y="124" as="sourcePoint" />
            <mxPoint x="450" y="244" as="targetPoint" />
          </mxGeometry>
        </mxCell>
        <mxCell id="WYZDTBI8hpZmAs6h1OOB-31" value="요리명s" style="text;html=1;strokeColor=none;fillColor=none;align=center;verticalAlign=middle;whiteSpace=wrap;rounded=0;fontSize=13;" parent="SfWb0SVNfTe2BU3Or30L-1" vertex="1">
          <mxGeometry x="520" y="184" width="60" height="30" as="geometry" />
        </mxCell>
        <mxCell id="WYZDTBI8hpZmAs6h1OOB-32" value="" style="endArrow=classic;html=1;fontSize=12;" parent="SfWb0SVNfTe2BU3Or30L-1" edge="1">
          <mxGeometry width="50" height="50" relative="1" as="geometry">
            <mxPoint x="450" y="324" as="sourcePoint" />
            <mxPoint x="610" y="444" as="targetPoint" />
          </mxGeometry>
        </mxCell>
        <mxCell id="WYZDTBI8hpZmAs6h1OOB-33" value="" style="endArrow=classic;html=1;fontSize=12;" parent="SfWb0SVNfTe2BU3Or30L-1" edge="1">
          <mxGeometry width="50" height="50" relative="1" as="geometry">
            <mxPoint x="590" y="444" as="sourcePoint" />
            <mxPoint x="430" y="324" as="targetPoint" />
          </mxGeometry>
        </mxCell>
        <mxCell id="WYZDTBI8hpZmAs6h1OOB-34" value="Keyword" style="text;html=1;strokeColor=none;fillColor=none;align=center;verticalAlign=middle;whiteSpace=wrap;rounded=0;fontSize=13;" parent="SfWb0SVNfTe2BU3Or30L-1" vertex="1">
          <mxGeometry x="515" y="354" width="60" height="30" as="geometry" />
        </mxCell>
        <mxCell id="WYZDTBI8hpZmAs6h1OOB-35" value="Top 5 Keyword" style="text;html=1;strokeColor=none;fillColor=none;align=center;verticalAlign=middle;whiteSpace=wrap;rounded=0;fontSize=13;" parent="SfWb0SVNfTe2BU3Or30L-1" vertex="1">
          <mxGeometry x="450" y="374" width="60" height="30" as="geometry" />
        </mxCell>
        <mxCell id="WYZDTBI8hpZmAs6h1OOB-37" value="" style="endArrow=classic;html=1;fontSize=12;" parent="SfWb0SVNfTe2BU3Or30L-1" edge="1">
          <mxGeometry width="50" height="50" relative="1" as="geometry">
            <mxPoint x="590" y="284" as="sourcePoint" />
            <mxPoint x="450" y="284" as="targetPoint" />
          </mxGeometry>
        </mxCell>
        <mxCell id="WYZDTBI8hpZmAs6h1OOB-39" value="Unique Word" style="text;html=1;strokeColor=none;fillColor=none;align=center;verticalAlign=middle;whiteSpace=wrap;rounded=0;fontSize=13;" parent="SfWb0SVNfTe2BU3Or30L-1" vertex="1">
          <mxGeometry x="480" y="266" width="80" height="18" as="geometry" />
        </mxCell>
        <mxCell id="WYZDTBI8hpZmAs6h1OOB-41" value="대조군 Text" style="text;html=1;strokeColor=none;fillColor=none;align=center;verticalAlign=middle;whiteSpace=wrap;rounded=0;fontSize=13;" parent="SfWb0SVNfTe2BU3Or30L-1" vertex="1">
          <mxGeometry x="660" y="364" width="80" height="30" as="geometry" />
        </mxCell>
      </root>
    </mxGraphModel>
  </diagram>
</mxfile>
